<mxfile host="65bd71144e">
    <diagram id="bgaOHyfAs7O8lR8PwoPx" name="ページ1">
        <mxGraphModel dx="1703" dy="1095" grid="1" gridSize="10" guides="1" tooltips="1" connect="1" arrows="1" fold="1" page="1" pageScale="1" pageWidth="827" pageHeight="1169" math="0" shadow="0">
            <root>
                <mxCell id="0"/>
                <mxCell id="1" parent="0"/>
                <mxCell id="37" value="" style="rounded=0;whiteSpace=wrap;html=1;" vertex="1" parent="1">
                    <mxGeometry y="40" width="820" height="570" as="geometry"/>
                </mxCell>
                <mxCell id="16" value="Node 2" style="text;html=1;align=center;verticalAlign=middle;whiteSpace=wrap;rounded=0;" parent="1" vertex="1">
                    <mxGeometry x="515" y="80" width="60" height="30" as="geometry"/>
                </mxCell>
                <mxCell id="17" value="" style="rounded=1;whiteSpace=wrap;html=1;" parent="1" vertex="1">
                    <mxGeometry x="435" y="110" width="230" height="80" as="geometry"/>
                </mxCell>
                <mxCell id="11" value="" style="rounded=1;whiteSpace=wrap;html=1;" parent="1" vertex="1">
                    <mxGeometry x="140" y="110" width="230" height="80" as="geometry"/>
                </mxCell>
                <mxCell id="3" value="&lt;div style=&quot;background-color: rgb(255, 255, 255); font-family: &amp;quot;Droid Sans Mono&amp;quot;, &amp;quot;monospace&amp;quot;, monospace; line-height: 16px; white-space: pre;&quot;&gt;&lt;span&gt;&lt;font style=&quot;color: rgb(0, 0, 0);&quot;&gt;RMW_ZENOH_PICO_LISTEN&lt;/font&gt;&lt;/span&gt;&lt;/div&gt;&lt;div style=&quot;background-color: rgb(255, 255, 255); font-family: &amp;quot;Droid Sans Mono&amp;quot;, &amp;quot;monospace&amp;quot;, monospace; line-height: 16px; white-space: pre; color: rgb(59, 59, 59);&quot;&gt;&lt;div style=&quot;line-height: 16px; color: rgb(59, 59, 59);&quot;&gt;&lt;span style=&quot;color: rgb(0, 128, 0);&quot;&gt;&lt;font style=&quot;color: rgb(0, 0, 0);&quot;&gt;RMW_ZENOH_PICO_LISTEN_PORT&lt;/font&gt;&lt;/span&gt;&lt;/div&gt;&lt;/div&gt;" style="rounded=1;whiteSpace=wrap;html=1;align=center;" parent="1" vertex="1">
                    <mxGeometry x="165" y="130" width="180" height="40" as="geometry"/>
                </mxCell>
                <mxCell id="9" style="edgeStyle=none;html=1;exitX=0;exitY=0.5;exitDx=0;exitDy=0;entryX=1;entryY=0.5;entryDx=0;entryDy=0;" parent="1" source="4" target="3" edge="1">
                    <mxGeometry relative="1" as="geometry"/>
                </mxCell>
                <mxCell id="4" value="&lt;div style=&quot;background-color: rgb(255, 255, 255); font-family: &amp;quot;Droid Sans Mono&amp;quot;, &amp;quot;monospace&amp;quot;, monospace; line-height: 16px; white-space: pre;&quot;&gt;&lt;span&gt;&lt;font style=&quot;color: rgb(0, 0, 0);&quot;&gt;RMW_ZENOH_PICO_CONNECT&lt;/font&gt;&lt;/span&gt;&lt;/div&gt;&lt;div style=&quot;background-color: rgb(255, 255, 255); font-family: &amp;quot;Droid Sans Mono&amp;quot;, &amp;quot;monospace&amp;quot;, monospace; line-height: 16px; white-space: pre; color: rgb(59, 59, 59);&quot;&gt;&lt;div style=&quot;line-height: 16px; color: rgb(59, 59, 59);&quot;&gt;&lt;span style=&quot;color: rgb(0, 128, 0);&quot;&gt;&lt;font style=&quot;color: rgb(0, 0, 0);&quot;&gt;RMW_ZENOH_PICO_CONNECT_PORT&lt;/font&gt;&lt;/span&gt;&lt;/div&gt;&lt;/div&gt;" style="rounded=1;whiteSpace=wrap;html=1;align=center;" parent="1" vertex="1">
                    <mxGeometry x="460" y="130" width="180" height="40" as="geometry"/>
                </mxCell>
                <mxCell id="10" value="Case Unicast" style="text;html=1;align=center;verticalAlign=middle;resizable=0;points=[];autosize=1;strokeColor=none;fillColor=none;" parent="1" vertex="1">
                    <mxGeometry x="140" y="50" width="90" height="30" as="geometry"/>
                </mxCell>
                <mxCell id="13" value="Node 1" style="text;html=1;align=center;verticalAlign=middle;whiteSpace=wrap;rounded=0;" parent="1" vertex="1">
                    <mxGeometry x="225" y="80" width="60" height="30" as="geometry"/>
                </mxCell>
                <mxCell id="18" value="Node 3" style="text;html=1;align=center;verticalAlign=middle;whiteSpace=wrap;rounded=0;" parent="1" vertex="1">
                    <mxGeometry x="515" y="200" width="60" height="30" as="geometry"/>
                </mxCell>
                <mxCell id="19" value="" style="rounded=1;whiteSpace=wrap;html=1;" parent="1" vertex="1">
                    <mxGeometry x="435" y="230" width="230" height="80" as="geometry"/>
                </mxCell>
                <mxCell id="20" value="&lt;div style=&quot;background-color: rgb(255, 255, 255); font-family: &amp;quot;Droid Sans Mono&amp;quot;, &amp;quot;monospace&amp;quot;, monospace; line-height: 16px; white-space: pre;&quot;&gt;&lt;span&gt;&lt;font style=&quot;color: rgb(0, 0, 0);&quot;&gt;RMW_ZENOH_PICO_CONNECT&lt;/font&gt;&lt;/span&gt;&lt;/div&gt;&lt;div style=&quot;background-color: rgb(255, 255, 255); font-family: &amp;quot;Droid Sans Mono&amp;quot;, &amp;quot;monospace&amp;quot;, monospace; line-height: 16px; white-space: pre; color: rgb(59, 59, 59);&quot;&gt;&lt;div style=&quot;line-height: 16px; color: rgb(59, 59, 59);&quot;&gt;&lt;span style=&quot;color: rgb(0, 128, 0);&quot;&gt;&lt;font style=&quot;color: rgb(0, 0, 0);&quot;&gt;RMW_ZENOH_PICO_CONNECT_PORT&lt;/font&gt;&lt;/span&gt;&lt;/div&gt;&lt;/div&gt;" style="rounded=1;whiteSpace=wrap;html=1;align=center;" parent="1" vertex="1">
                    <mxGeometry x="460" y="250" width="180" height="40" as="geometry"/>
                </mxCell>
                <mxCell id="22" style="edgeStyle=elbowEdgeStyle;elbow=vertical;html=1;exitX=0.5;exitY=1;exitDx=0;exitDy=0;entryX=0;entryY=0.5;entryDx=0;entryDy=0;startArrow=classic;startFill=1;endArrow=none;endFill=0;" parent="1" source="3" target="20" edge="1">
                    <mxGeometry relative="1" as="geometry">
                        <Array as="points">
                            <mxPoint x="350" y="270"/>
                        </Array>
                    </mxGeometry>
                </mxCell>
                <mxCell id="25" value="Node 2" style="text;html=1;align=center;verticalAlign=middle;whiteSpace=wrap;rounded=0;" parent="1" vertex="1">
                    <mxGeometry x="510" y="345" width="60" height="30" as="geometry"/>
                </mxCell>
                <mxCell id="26" value="" style="rounded=1;whiteSpace=wrap;html=1;" parent="1" vertex="1">
                    <mxGeometry x="435" y="375" width="230" height="80" as="geometry"/>
                </mxCell>
                <mxCell id="27" value="" style="rounded=1;whiteSpace=wrap;html=1;" parent="1" vertex="1">
                    <mxGeometry x="160" y="375" width="230" height="80" as="geometry"/>
                </mxCell>
                <mxCell id="28" value="&lt;div style=&quot;background-color: rgb(255, 255, 255); font-family: &amp;quot;Droid Sans Mono&amp;quot;, &amp;quot;monospace&amp;quot;, monospace; line-height: 16px; white-space: pre;&quot;&gt;&lt;span&gt;&lt;font style=&quot;color: rgb(0, 0, 0);&quot;&gt;RMW_ZENOH_PICO_MCAST&lt;/font&gt;&lt;/span&gt;&lt;/div&gt;&lt;div style=&quot;background-color: rgb(255, 255, 255); font-family: &amp;quot;Droid Sans Mono&amp;quot;, &amp;quot;monospace&amp;quot;, monospace; line-height: 16px; white-space: pre; color: rgb(59, 59, 59);&quot;&gt;&lt;div style=&quot;line-height: 16px; color: rgb(59, 59, 59);&quot;&gt;&lt;span style=&quot;color: rgb(0, 128, 0);&quot;&gt;&lt;font style=&quot;color: rgb(0, 0, 0);&quot;&gt;RMW_ZENOH_PICO_MCAST_PORT&lt;/font&gt;&lt;/span&gt;&lt;/div&gt;&lt;/div&gt;" style="rounded=1;whiteSpace=wrap;html=1;align=center;" parent="1" vertex="1">
                    <mxGeometry x="185" y="395" width="180" height="40" as="geometry"/>
                </mxCell>
                <mxCell id="29" style="edgeStyle=none;html=1;exitX=0;exitY=0.5;exitDx=0;exitDy=0;entryX=1;entryY=0.5;entryDx=0;entryDy=0;startArrow=classic;startFill=1;" parent="1" source="30" target="28" edge="1">
                    <mxGeometry relative="1" as="geometry"/>
                </mxCell>
                <mxCell id="30" value="&lt;div style=&quot;background-color: rgb(255, 255, 255); font-family: &amp;quot;Droid Sans Mono&amp;quot;, &amp;quot;monospace&amp;quot;, monospace; line-height: 16px; white-space: pre;&quot;&gt;&lt;span&gt;&lt;font style=&quot;color: rgb(0, 0, 0);&quot;&gt;RMW_ZENOH_PICO_MCAST&lt;/font&gt;&lt;/span&gt;&lt;/div&gt;&lt;div style=&quot;background-color: rgb(255, 255, 255); font-family: &amp;quot;Droid Sans Mono&amp;quot;, &amp;quot;monospace&amp;quot;, monospace; line-height: 16px; white-space: pre; color: rgb(59, 59, 59);&quot;&gt;&lt;div style=&quot;line-height: 16px; color: rgb(59, 59, 59);&quot;&gt;&lt;span style=&quot;color: rgb(0, 128, 0);&quot;&gt;&lt;font style=&quot;color: rgb(0, 0, 0);&quot;&gt;RMW_ZENOH_PICO_MCAST_PORT&lt;/font&gt;&lt;/span&gt;&lt;/div&gt;&lt;/div&gt;" style="rounded=1;whiteSpace=wrap;html=1;align=center;" parent="1" vertex="1">
                    <mxGeometry x="460" y="395" width="180" height="40" as="geometry"/>
                </mxCell>
                <mxCell id="31" value="Case Multicast" style="text;html=1;align=center;verticalAlign=middle;resizable=0;points=[];autosize=1;strokeColor=none;fillColor=none;" parent="1" vertex="1">
                    <mxGeometry x="150" y="315" width="100" height="30" as="geometry"/>
                </mxCell>
                <mxCell id="32" value="Node 1" style="text;html=1;align=center;verticalAlign=middle;whiteSpace=wrap;rounded=0;" parent="1" vertex="1">
                    <mxGeometry x="240" y="345" width="60" height="30" as="geometry"/>
                </mxCell>
                <mxCell id="33" value="Node 3" style="text;html=1;align=center;verticalAlign=middle;whiteSpace=wrap;rounded=0;" parent="1" vertex="1">
                    <mxGeometry x="515" y="465" width="60" height="30" as="geometry"/>
                </mxCell>
                <mxCell id="34" value="" style="rounded=1;whiteSpace=wrap;html=1;" parent="1" vertex="1">
                    <mxGeometry x="435" y="495" width="230" height="80" as="geometry"/>
                </mxCell>
                <mxCell id="35" value="&lt;div style=&quot;background-color: rgb(255, 255, 255); font-family: &amp;quot;Droid Sans Mono&amp;quot;, &amp;quot;monospace&amp;quot;, monospace; line-height: 16px; white-space: pre;&quot;&gt;&lt;span&gt;&lt;font style=&quot;color: rgb(0, 0, 0);&quot;&gt;RMW_ZENOH_PICO_MCAST&lt;/font&gt;&lt;/span&gt;&lt;/div&gt;&lt;div style=&quot;background-color: rgb(255, 255, 255); font-family: &amp;quot;Droid Sans Mono&amp;quot;, &amp;quot;monospace&amp;quot;, monospace; line-height: 16px; white-space: pre; color: rgb(59, 59, 59);&quot;&gt;&lt;div style=&quot;line-height: 16px; color: rgb(59, 59, 59);&quot;&gt;&lt;span style=&quot;color: rgb(0, 128, 0);&quot;&gt;&lt;font style=&quot;color: rgb(0, 0, 0);&quot;&gt;RMW_ZENOH_PICO_MCAST_PORT&lt;/font&gt;&lt;/span&gt;&lt;/div&gt;&lt;/div&gt;" style="rounded=1;whiteSpace=wrap;html=1;align=center;" parent="1" vertex="1">
                    <mxGeometry x="460" y="515" width="180" height="40" as="geometry"/>
                </mxCell>
                <mxCell id="36" style="edgeStyle=elbowEdgeStyle;elbow=vertical;html=1;startArrow=none;startFill=0;endArrow=classic;endFill=1;" parent="1" edge="1">
                    <mxGeometry relative="1" as="geometry">
                        <mxPoint x="410" y="415" as="sourcePoint"/>
                        <mxPoint x="460" y="535" as="targetPoint"/>
                        <Array as="points">
                            <mxPoint x="360" y="535"/>
                        </Array>
                    </mxGeometry>
                </mxCell>
            </root>
        </mxGraphModel>
    </diagram>
</mxfile>